<svg width="45" height="44" viewBox="0 0 45 44" fill="none" xmlns="http://www.w3.org/2000/svg">
<ellipse cx="22.6275" cy="22" rx="21.9941" ry="22" fill="#191919"/>
<g clip-path="url(#clip0_4002_3616)">
<path d="M22.4707 21.5975C23.9262 21.5975 25.1865 21.0753 26.2163 20.0451C27.2461 19.015 27.7681 17.7546 27.7681 16.2986C27.7681 14.843 27.2461 13.5825 26.2161 12.5521C25.1862 11.5222 23.926 11 22.4707 11C21.015 11 19.755 11.5222 18.7252 12.5522C17.6954 13.5823 17.1732 14.8428 17.1732 16.2986C17.1732 17.7546 17.6954 19.0152 18.7254 20.0452C19.7553 21.0751 21.0155 21.5975 22.4707 21.5975Z" fill="white"/>
<path d="M31.7403 27.917C31.7106 27.4883 31.6506 27.0207 31.5621 26.5269C31.4729 26.0294 31.3579 25.5591 31.2203 25.1292C31.0782 24.6849 30.8849 24.2462 30.6459 23.8257C30.3979 23.3893 30.1066 23.0093 29.7798 22.6966C29.4379 22.3695 29.0195 22.1065 28.5355 21.9146C28.0533 21.7238 27.5188 21.6271 26.9471 21.6271C26.7226 21.6271 26.5055 21.7193 26.0861 21.9924C25.8281 22.1607 25.5262 22.3554 25.1892 22.5708C24.9011 22.7544 24.5108 22.9264 24.0287 23.0822C23.5584 23.2344 23.0808 23.3116 22.6095 23.3116C22.1381 23.3116 21.6607 23.2344 21.1899 23.0822C20.7083 22.9266 20.318 22.7545 20.0302 22.5709C19.6965 22.3576 19.3944 22.1629 19.1325 21.9922C18.7137 21.7191 18.4964 21.627 18.2719 21.627C17.7 21.627 17.1657 21.7238 16.6836 21.9148C16.2 22.1063 15.7814 22.3693 15.4392 22.6968C15.1125 23.0097 14.821 23.3895 14.5734 23.8257C14.3346 24.2462 14.1413 24.6848 13.999 25.1294C13.8616 25.5593 13.7466 26.0294 13.6573 26.5269C13.5689 27.02 13.5088 27.4878 13.4791 27.9175C13.4499 28.3384 13.4352 28.7753 13.4352 29.2166C13.4352 30.365 13.8001 31.2947 14.5198 31.9804C15.2306 32.657 16.1712 33.0002 17.3149 33.0002H27.9051C29.0488 33.0002 29.989 32.6571 30.7 31.9804C31.4198 31.2952 31.7848 30.3654 31.7848 29.2164C31.7846 28.7732 31.7697 28.3359 31.7403 27.917Z" fill="white"/>
</g>
<defs>
<clipPath id="clip0_4002_3616">
<rect width="21.9939" height="22" fill="white" transform="translate(11.6305 11)"/>
</clipPath>
</defs>
</svg>
