<svg width="44" height="44" viewBox="0 0 44 44" fill="none" xmlns="http://www.w3.org/2000/svg">
<circle cx="22" cy="22" r="22" fill="#29292D"/>
<g clip-path="url(#clip0_21_240)">
<path d="M21.8432 21.5975C23.2991 21.5975 24.5598 21.0753 25.5899 20.0451C26.6199 19.015 27.1421 17.7546 27.1421 16.2986C27.1421 14.843 26.6199 13.5825 25.5897 12.5521C24.5595 11.5222 23.2989 11 21.8432 11C20.3871 11 19.1268 11.5222 18.0967 12.5522C17.0666 13.5823 16.5443 14.8428 16.5443 16.2986C16.5443 17.7546 17.0666 19.0152 18.0969 20.0452C19.1271 21.0751 20.3876 21.5975 21.8432 21.5975Z" fill="white"/>
<path d="M31.1148 27.9169C31.0851 27.4882 31.025 27.0206 30.9366 26.5268C30.8473 26.0293 30.7323 25.559 30.5947 25.1291C30.4525 24.6848 30.2592 24.2461 30.0202 23.8256C29.7721 23.3892 29.4807 23.0092 29.1537 22.6965C28.8118 22.3694 28.3932 22.1064 27.9092 21.9145C27.4268 21.7237 26.8922 21.627 26.3203 21.627C26.0957 21.627 25.8786 21.7191 25.4591 21.9922C25.201 22.1606 24.899 22.3553 24.562 22.5706C24.2738 22.7543 23.8834 22.9263 23.4011 23.0821C22.9307 23.2343 22.453 23.3115 21.9815 23.3115C21.51 23.3115 21.0325 23.2343 20.5615 23.0821C20.0798 22.9265 19.6894 22.7544 19.4015 22.5708C19.0677 22.3575 18.7656 22.1628 18.5036 21.9921C18.0846 21.719 17.8673 21.6268 17.6427 21.6268C17.0707 21.6268 16.5362 21.7237 16.054 21.9147C15.5703 22.1062 15.1515 22.3692 14.8093 22.6967C14.4825 23.0095 14.1909 23.3894 13.9432 23.8256C13.7043 24.2461 13.511 24.6847 13.3687 25.1293C13.2312 25.5591 13.1162 26.0293 13.0269 26.5268C12.9385 27.0199 12.8784 27.4877 12.8487 27.9174C12.8195 28.3383 12.8047 28.7752 12.8047 29.2165C12.8047 30.3649 13.1698 31.2946 13.8896 31.9802C14.6006 32.6568 15.5414 33.0001 16.6855 33.0001H27.2786C28.4226 33.0001 29.363 32.657 30.0742 31.9802C30.7943 31.2951 31.1593 30.3652 31.1593 29.2163C31.1592 28.773 31.1442 28.3358 31.1148 27.9169Z" fill="white"/>
</g>
<defs>
<clipPath id="clip0_21_240">
<rect width="21.9999" height="22" fill="white" transform="translate(11 11)"/>
</clipPath>
</defs>
</svg>
