<svg width="45" height="44" viewBox="0 0 45 44" fill="none" xmlns="http://www.w3.org/2000/svg">
<ellipse cx="22.6449" cy="22" rx="21.994" ry="22" fill="#191919"/>
<path d="M30.6876 30.0025L29.515 17.1256C29.4834 16.7709 29.1865 16.5 28.8304 16.5H26.7685V15.125C26.7685 14.0195 26.3396 12.9827 25.563 12.2059C24.7987 11.44 23.7347 11 22.6446 11C20.371 11 18.5208 12.8507 18.5208 15.125V16.5H16.4588C16.1028 16.5 15.8059 16.7709 15.7742 17.1256L14.6044 30.0011C14.5343 30.7698 14.7928 31.5356 15.3124 32.1049C15.832 32.6741 16.5715 33 17.3427 33H27.9479C28.7177 33 29.4573 32.6741 29.9769 32.1063C30.4979 31.537 30.7549 30.7697 30.6876 30.0025ZM25.3939 16.5H19.8954V15.125C19.8954 13.6084 21.1284 12.375 22.6446 12.375C23.3732 12.375 24.0825 12.6665 24.5911 13.1766C25.1093 13.695 25.3939 14.3866 25.3939 15.125V16.5Z" fill="white"/>
</svg>
