<svg width="44" height="44" viewBox="0 0 44 44" fill="none" xmlns="http://www.w3.org/2000/svg">
<circle cx="22" cy="22" r="22" fill="#29292D"/>
<path d="M30.0441 30.0025L28.8712 17.1256C28.8396 16.7709 28.5426 16.5 28.1865 16.5H26.124V15.125C26.124 14.0195 25.695 12.9827 24.9181 12.2059C24.1536 11.44 23.0894 11 21.999 11C19.7247 11 17.874 12.8507 17.874 15.125V16.5H15.8115C15.4554 16.5 15.1584 16.7709 15.1267 17.1256L13.9566 30.0011C13.8865 30.7698 14.145 31.5356 14.6647 32.1049C15.1845 32.6741 15.9242 33 16.6956 33H27.3037C28.0737 33 28.8135 32.6741 29.3332 32.1063C29.8544 31.537 30.1115 30.7697 30.0441 30.0025ZM24.749 16.5H19.249V15.125C19.249 13.6084 20.4824 12.375 21.999 12.375C22.7277 12.375 23.4372 12.6665 23.946 13.1766C24.4644 13.695 24.749 14.3866 24.749 15.125V16.5Z" fill="white"/>
</svg>
