<svg width="18" height="22" viewBox="0 0 18 22" fill="none" xmlns="http://www.w3.org/2000/svg">
<path d="M17.0441 19.0025L15.8712 6.12562C15.8396 5.77087 15.5426 5.5 15.1865 5.5H13.124V4.125C13.124 3.0195 12.695 1.98275 11.9181 1.20587C11.1536 0.44 10.0894 0 8.99899 0C6.72474 0 4.87399 1.85075 4.87399 4.125V5.5H2.81149C2.45537 5.5 2.15837 5.77087 2.12674 6.12562L0.956619 19.0011C0.886494 19.7698 1.14499 20.5356 1.66474 21.1049C2.18449 21.6741 2.92424 22 3.69562 22H14.3037C15.0737 22 15.8135 21.6741 16.3332 21.1063C16.8544 20.537 17.1115 19.7697 17.0441 19.0025ZM11.749 5.5H6.24899V4.125C6.24899 2.60837 7.48237 1.375 8.99899 1.375C9.72774 1.375 10.4372 1.6665 10.946 2.17663C11.4644 2.695 11.749 3.38663 11.749 4.125V5.5Z" fill="white"/>
</svg>
