<svg width="36" height="35" viewBox="0 0 36 35" fill="none" xmlns="http://www.w3.org/2000/svg">
<g clip-path="url(#clip0_21_217)">
<g clip-path="url(#clip1_21_217)">
<path d="M3.04039 2.38127C0.290714 5.23815 0.853479 8.27294 0.853479 17.4925C0.853479 25.1488 -0.481994 32.824 6.50737 34.6309C8.6899 35.1923 28.028 35.1923 30.2076 34.6279C33.1177 33.8769 35.4854 31.5159 35.809 27.399C35.8542 26.8244 35.8542 8.17086 35.8076 7.58461C35.4635 3.1994 32.7648 0.672105 29.2089 0.16023C28.3939 0.042105 28.2307 0.00710502 24.0493 -0.000186652C9.21767 0.00710502 5.96647 -0.65352 3.04039 2.38127Z" fill="url(#paint0_linear_21_217)"/>
<path d="M18.3459 4.57741C13.0521 4.57741 8.02512 4.10637 6.10501 9.03554C5.31189 11.0714 5.42707 13.7153 5.42707 17.5012C5.42707 20.8232 5.32064 23.9455 6.10501 25.9653C8.02074 30.8974 13.0885 30.4249 18.343 30.4249C23.4122 30.4249 28.6389 30.9528 30.5823 25.9653C31.3769 23.9091 31.2603 21.3045 31.2603 17.5012C31.2603 12.4524 31.5388 9.19304 29.0909 6.74595C26.6124 4.26679 23.2606 4.57741 18.34 4.57741H18.3459ZM17.1883 6.90637C28.2307 6.88887 29.6361 5.66096 28.8605 22.7191C28.585 28.7522 23.9925 28.0901 18.3473 28.0901C8.05427 28.0901 7.75831 27.7955 7.75831 17.4953C7.75831 7.07554 8.57476 6.91221 17.1883 6.90346V6.90637ZM25.2419 9.05158C24.3861 9.05158 23.6921 9.74575 23.6921 10.6018C23.6921 11.4578 24.3861 12.152 25.2419 12.152C26.0977 12.152 26.7917 11.4578 26.7917 10.6018C26.7917 9.74575 26.0977 9.05158 25.2419 9.05158ZM18.3459 10.8643C14.6821 10.8643 11.7122 13.8364 11.7122 17.5012C11.7122 21.166 14.6821 24.1366 18.3459 24.1366C22.0097 24.1366 24.978 21.166 24.978 17.5012C24.978 13.8364 22.0097 10.8643 18.3459 10.8643ZM18.3459 13.1932C24.0391 13.1932 24.0464 21.8091 18.3459 21.8091C12.6541 21.8091 12.6453 13.1932 18.3459 13.1932Z" fill="white"/>
</g>
</g>
<defs>
<linearGradient id="paint0_linear_21_217" x1="3.10748" y1="32.7643" x2="35.635" y2="4.61973" gradientUnits="userSpaceOnUse">
<stop stop-color="#FFDD55"/>
<stop offset="0.5" stop-color="#FF543E"/>
<stop offset="1" stop-color="#C837AB"/>
</linearGradient>
<clipPath id="clip0_21_217">
<rect x="0.853516" width="34.9905" height="35" rx="17.4953" fill="white"/>
</clipPath>
<clipPath id="clip1_21_217">
<rect width="34.9905" height="35" fill="white" transform="translate(0.853516)"/>
</clipPath>
</defs>
</svg>
