<svg width="21" height="20" viewBox="0 0 21 20" fill="none" xmlns="http://www.w3.org/2000/svg">
<g clip-path="url(#clip0_21_167)">
<path d="M20.3039 14.678L17.5136 11.8869C16.5171 10.8901 14.8229 11.2889 14.4243 12.5847C14.1254 13.4819 13.1288 13.9803 12.2319 13.7809C10.2389 13.2825 7.54822 10.6908 7.04995 8.59746C6.75099 7.7003 7.34892 6.70349 8.2458 6.40448C9.5413 6.00576 9.93991 4.31119 8.94337 3.31438L6.15307 0.523324C5.35584 -0.174441 4.16 -0.174441 3.46242 0.523324L1.569 2.41726C-0.324414 4.41087 1.76831 9.69395 6.45203 14.3789C11.1358 19.0639 16.4174 21.2569 18.4105 19.2633L20.3039 17.3694C21.0015 16.5719 21.0015 15.3757 20.3039 14.678Z" fill="#B3C0D2"/>
</g>
<defs>
<clipPath id="clip0_21_167">
<rect width="19.9946" height="20" fill="white" transform="translate(0.853516)"/>
</clipPath>
</defs>
</svg>
