<svg width="36" height="35" viewBox="0 0 36 35" fill="none" xmlns="http://www.w3.org/2000/svg">
<g clip-path="url(#clip0_21_221)">
<g clip-path="url(#clip1_21_221)">
<path d="M18.3311 35C27.9935 35 35.8264 27.165 35.8264 17.5C35.8264 7.83502 27.9935 0 18.3311 0C8.66878 0 0.835876 7.83502 0.835876 17.5C0.835876 27.165 8.66878 35 18.3311 35Z" fill="#4D76A1"/>
<path fill-rule="evenodd" clip-rule="evenodd" d="M17.6703 25.1753H19.0434C19.0434 25.1753 19.4582 25.1298 19.67 24.9014C19.8649 24.6918 19.8587 24.2981 19.8587 24.2981C19.8587 24.2981 19.8319 22.4551 20.687 22.1837C21.53 21.9163 22.6125 23.9649 23.7599 24.7526C24.6275 25.3487 25.2868 25.218 25.2868 25.218L28.3546 25.1753C28.3546 25.1753 29.9595 25.0764 29.1986 23.8142C29.1362 23.711 28.7554 22.8806 26.9175 21.1742C24.9939 19.3882 25.2515 19.6771 27.5687 16.5878C28.9799 14.7064 29.5441 13.5578 29.3679 13.0659C29.1998 12.5973 28.1619 12.7212 28.1619 12.7212L24.7076 12.7427C24.7076 12.7427 24.4516 12.7077 24.2617 12.8213C24.0761 12.9327 23.9566 13.1922 23.9566 13.1922C23.9566 13.1922 23.4099 14.6481 22.6808 15.8862C21.1426 18.4989 20.5276 18.6367 20.2763 18.4745C19.6915 18.0964 19.8375 16.9556 19.8375 16.1452C19.8375 13.6133 20.2214 12.5577 19.0899 12.2844C18.7144 12.1936 18.4381 12.1337 17.4779 12.1241C16.2454 12.1113 15.2021 12.1278 14.6115 12.4173C14.2185 12.6098 13.9154 13.0387 14.1 13.0634C14.3283 13.0939 14.8454 13.2028 15.1195 13.5762C15.4735 14.0579 15.461 15.1397 15.461 15.1397C15.461 15.1397 15.6643 18.1201 14.986 18.4904C14.5204 18.7444 13.8817 18.2259 12.5104 15.8557C11.8078 14.6415 11.2773 13.2995 11.2773 13.2995C11.2773 13.2995 11.175 13.0487 10.9925 12.9146C10.7711 12.752 10.4617 12.7003 10.4617 12.7003L7.1793 12.7218C7.1793 12.7218 6.68654 12.7355 6.50566 12.9498C6.34473 13.1404 6.49287 13.5347 6.49287 13.5347C6.49287 13.5347 9.06268 19.5486 11.9724 22.5792C14.6405 25.3578 17.6703 25.1753 17.6703 25.1753Z" fill="white"/>
</g>
</g>
<defs>
<clipPath id="clip0_21_221">
<rect width="34.9905" height="35" fill="white" transform="translate(0.835876)"/>
</clipPath>
<clipPath id="clip1_21_221">
<rect width="34.9905" height="35" fill="white" transform="translate(0.835876)"/>
</clipPath>
</defs>
</svg>
