<svg width="36" height="35" viewBox="0 0 36 35" fill="none" xmlns="http://www.w3.org/2000/svg">
<g clip-path="url(#clip0_21_257)">
<g clip-path="url(#clip1_21_257)">
<path d="M18.3179 0H18.3091C8.66268 0 0.818237 7.84875 0.818237 17.5C0.818237 21.3281 2.05165 24.8762 4.1489 27.7572L1.96855 34.2584L8.6933 32.1081C11.4597 33.9412 14.7598 35 18.3179 35C27.9643 35 35.8088 27.1491 35.8088 17.5C35.8088 7.85094 27.9643 0 18.3179 0Z" fill="#4CAF50"/>
<path d="M28.498 24.7123C28.0759 25.9045 26.4007 26.8932 25.0645 27.182C24.1504 27.3766 22.9563 27.532 18.9368 25.8651C13.7954 23.7345 10.4844 18.5085 10.2263 18.1695C9.97922 17.8304 8.14877 15.4023 8.14877 12.891C8.14877 10.3798 9.42374 9.15696 9.93766 8.63196C10.3597 8.20103 11.0574 8.00415 11.7266 8.00415C11.9431 8.00415 12.1377 8.01509 12.3126 8.02384C12.8266 8.04571 13.0846 8.07634 13.4236 8.8879C13.8457 9.90509 14.8735 12.4163 14.996 12.6745C15.1206 12.9326 15.2453 13.2826 15.0703 13.6217C14.9063 13.9717 14.762 14.127 14.5039 14.4245C14.2459 14.722 14.0009 14.9495 13.7429 15.2688C13.5067 15.5466 13.2399 15.8442 13.5373 16.3582C13.8347 16.8613 14.8626 18.5391 16.3759 19.8866C18.3288 21.6257 19.9122 22.1813 20.4786 22.4176C20.9006 22.5926 21.4036 22.551 21.712 22.2229C22.1034 21.8007 22.5867 21.1007 23.0788 20.4116C23.4287 19.9173 23.8705 19.856 24.3341 20.031C24.8065 20.1951 27.3061 21.431 27.82 21.687C28.3339 21.9451 28.6729 22.0676 28.7976 22.2841C28.92 22.5007 28.92 23.5179 28.498 24.7123Z" fill="#FAFAFA"/>
</g>
</g>
<defs>
<clipPath id="clip0_21_257">
<rect width="34.9905" height="35" fill="white" transform="translate(0.818237)"/>
</clipPath>
<clipPath id="clip1_21_257">
<rect width="34.9905" height="35" fill="white" transform="translate(0.818237)"/>
</clipPath>
</defs>
</svg>
